Coordinates
version=1
nRows=32
nColumns=18
inDegrees=yes

Units are S.I. units (second, meters, Newtons, ...)
If the header above contains a line with 'inDegrees', this indicates whether rotational values are in degrees (yes) or radians (no).

endheader
time	ground_thorax_rot_x	ground_thorax_rot_y	ground_thorax_rot_z	ground_thorax_tx	ground_thorax_ty	ground_thorax_tz	clav_prot	clav_elev	scapula_abduction	scapula_elevation	scapula_upward_rot	scapula_winging	plane_elv	shoulder_elv	axial_rot	elbow_flexion	pro_sup
      2.56000000	      4.85238160	     -1.66399158	    -12.88812828	     -0.00352621	      0.01083199	      0.02326803	    -23.65588570	    -15.53700694	    -24.67528487	    -12.42725413	     13.63399703	     20.41187304	    -47.64957453	     29.90558631	     48.59560360	     19.03052886	   -164.14814420
      2.58000000	      4.80346126	     -1.45752841	    -12.66776016	     -0.00520415	      0.01109904	      0.02336417	    -23.63002592	    -15.95079249	    -24.37001217	    -12.78434749	     13.83253749	     20.58963917	    -46.56890495	     29.31061319	     48.22276160	     18.88514389	   -164.15764089
      2.60000000	      4.88726932	     -1.07841034	    -12.25622593	     -0.00722286	      0.01134385	      0.02365284	    -23.59237686	    -16.09504100	    -24.47136060	    -12.81433926	     13.52459601	     20.73268156	    -44.43489511	     29.04944305	     45.76456379	     18.66806944	   -164.54256727
      2.62000000	      4.81867196	     -0.84302054	    -12.08052310	     -0.00866755	      0.01155868	      0.02374480	    -23.57658685	    -16.49513213	    -24.20004508	    -13.15804605	     13.70649235	     20.91408269	    -43.25163944	     28.49904950	     45.36434532	     18.41905404	   -164.56133180
      2.64000000	      4.92867398	     -0.37193128	    -11.70145665	     -0.01054547	      0.01166808	      0.02400891	    -23.61439345	    -16.52003630	    -24.40282781	    -13.12798363	     13.49901535	     20.97670154	    -41.05824086	     28.20704950	     43.31383804	     18.10635654	   -164.95839737
      2.66000000	      4.89372417	     -0.05591070	    -11.48467495	     -0.01201221	      0.01176775	      0.02410561	    -23.57347905	    -16.75544299	    -24.27434596	    -13.29736617	     13.47842944	     21.10978724	    -39.41407220	     27.84975879	     41.98650891	     17.83269427	   -165.17702535
      2.68000000	      4.87459779	      0.30325032	    -11.27267622	     -0.01344599	      0.01185664	      0.02418577	    -23.55888975	    -16.94582429	    -24.17649310	    -13.44500259	     13.50099993	     21.21261150	    -37.78492553	     27.49620478	     40.66523983	     17.51922135	   -165.42574086
      2.70000000	      4.83790831	      0.65453309	    -11.07651716	     -0.01479920	      0.01192094	      0.02423619	    -23.54250789	    -17.10947157	    -24.06485414	    -13.57913836	     13.55057975	     21.29469782	    -36.19930728	     27.13978358	     39.45246421	     17.19845333	   -165.67440566
      2.72000000	      4.78910737	      1.00645335	    -10.89080088	     -0.01611201	      0.01196972	      0.02424268	    -23.52082845	    -17.24954277	    -23.94163961	    -13.69843255	     13.61324334	     21.36054438	    -34.64965543	     26.79774922	     38.30957999	     16.86959264	   -165.93589494
      2.74000000	      4.73233482	      1.35570007	    -10.71075771	     -0.01738495	      0.01202085	      0.02421508	    -23.49999948	    -17.36442776	    -23.81126671	    -13.80447123	     13.69920631	     21.40738809	    -33.16268102	     26.46101757	     37.23321418	     16.54091548	   -166.21165907
      2.76000000	      4.58453453	      1.66245495	    -10.54936325	     -0.01856120	      0.01210133	      0.02405708	    -23.44299139	    -17.56599148	    -23.58218493	    -13.97642703	     13.79710249	     21.49968610	    -31.97175775	     26.10830625	     36.65430514	     16.21916968	   -166.36222581
      2.78000000	      4.44847667	      2.11621002	    -10.27772661	     -0.01987926	      0.01238602	      0.02360974	    -23.38034163	    -17.75578433	    -23.30508720	    -14.15347308	     13.95457751	     21.57314574	    -31.55045135	     25.88074168	     36.55091989	     16.23688532	   -166.38213433
      2.80000000	      4.48798402	      2.31663607	    -10.20739614	     -0.02102694	      0.01216453	      0.02394189	    -23.41541450	    -17.62022225	    -23.35274174	    -14.07275640	     14.03430249	     21.47923771	    -29.12256091	     25.49678245	     34.55447381	     15.61711782	   -167.10469842
      2.82000000	      4.32239702	      2.69691594	     -9.95857861	     -0.02229056	      0.01242426	      0.02352582	    -23.34425008	    -17.80016551	    -23.07769208	    -14.23654256	     14.17044966	     21.55086840	    -28.76000384	     25.27211476	     34.49787598	     15.65508946	   -167.10918485
      2.84000000	      4.06111914	      2.86068047	     -9.87969293	     -0.02328638	      0.01243032	      0.02318738	    -23.26097628	    -18.02206220	    -22.77447788	    -14.42887591	     14.29763152	     21.64943405	    -27.85750808	     24.89969404	     34.18735005	     15.38881133	   -167.20647982
      2.86000000	      4.18650384	      3.05479638	     -9.74967995	     -0.02450158	      0.01232578	      0.02349543	    -23.27820410	    -17.78391057	    -22.77467549	    -14.28568942	     14.44306274	     21.47702111	    -25.88664620	     24.65512835	     32.49916062	     15.01595249	   -167.88461369
      2.88000000	      4.03169325	      3.34888459	     -9.52882258	     -0.02573031	      0.01255486	      0.02309472	    -23.22096974	    -17.92561085	    -22.55386578	    -14.41479735	     14.55248017	     21.53357197	    -25.59725510	     24.47710294	     32.47831667	     15.10916686	   -167.88444754
      2.90000000	      3.89122193	      3.37740704	     -9.49088463	     -0.02665651	      0.01256954	      0.02304125	    -23.15844524	    -18.06463337	    -22.33229650	    -14.53877553	     14.65035828	     21.59088409	    -24.45146024	     24.21122553	     31.98517307	     14.83171693	   -168.09467811
      2.92000000	      3.74010222	      3.56895040	     -9.31183251	     -0.02777571	      0.01265724	      0.02278933	    -23.11421097	    -18.13906163	    -22.17363367	    -14.61150652	     14.73237202	     21.61445601	    -24.04797379	     24.01455756	     31.84951430	     14.99836554	   -168.15879991
      2.94000000	      3.67995665	      3.60589782	     -9.25611650	     -0.02873424	      0.01271878	      0.02273179	    -23.07728703	    -18.23093926	    -21.99777762	    -14.70606306	     14.84993890	     21.64251053	    -23.21218581	     23.85780861	     31.42601668	     14.95868003	   -168.34184670
      2.96000000	      3.56115600	      3.76107118	     -9.06729106	     -0.02986418	      0.01279864	      0.02249774	    -23.04411071	    -18.27912397	    -21.88421717	    -14.75369359	     14.90674081	     21.65671296	    -22.89818066	     23.71636247	     31.30948861	     15.12471839	   -168.39158312
      2.98000000	      3.47990932	      3.83863314	     -8.96324687	     -0.03083735	      0.01286529	      0.02234495	    -23.01334887	    -18.35713078	    -21.75764447	    -14.82659490	     14.97544370	     21.68733599	    -22.51157802	     23.61135212	     31.18588934	     15.29770668	   -168.43689488
      3.00000000	      3.41230505	      3.88120764	     -8.87462668	     -0.03175838	      0.01291553	      0.02223638	    -22.98632242	    -18.43081609	    -21.64908605	    -14.89306609	     15.02977762	     21.71884286	    -22.12143155	     23.52485404	     31.04264367	     15.45954301	   -168.48074874
      3.02000000	      3.45864661	      3.90696104	     -8.83896425	     -0.03263463	      0.01280986	      0.02237190	    -22.99376104	    -18.35557656	    -21.67713790	    -14.83963165	     15.04076579	     21.67065696	    -21.12223603	     23.49889180	     29.96991582	     15.46724954	   -168.63182864
      3.04000000	      3.45596586	      3.92837902	     -8.78831239	     -0.03343596	      0.01277133	      0.02239634	    -23.01115945	    -18.34307850	    -21.63496128	    -14.85680954	     15.14996802	     21.64271898	    -20.72731345	     23.38264150	     29.62012918	     15.64583271	   -168.57242994
      3.06000000	      3.40923529	      3.94764151	     -8.70628379	     -0.03420495	      0.01285434	      0.02227455	    -22.98395627	    -18.43955418	    -21.57084164	    -14.92317426	     15.13106728	     21.70337961	    -20.62781428	     23.39541745	     29.72715631	     15.86458660	   -168.35624896
      3.08000000	      3.39809715	      3.97991290	     -8.69647515	     -0.03486546	      0.01281109	      0.02220307	    -22.99805267	    -18.47049262	    -21.55366511	    -14.95811637	     15.17796489	     21.71485717	    -20.38277473	     23.35839227	     29.49589445	     16.03928503	   -168.31964946
      3.10000000	      3.34865333	      3.93752704	     -8.61514846	     -0.03549435	      0.01287327	      0.02213647	    -22.95590175	    -18.57175698	    -21.49654149	    -15.01563525	     15.10924977	     21.78713994	    -20.36206105	     23.40640465	     29.58913597	     16.22856385	   -168.12459310
      3.12000000	      3.41131113	      3.95295464	     -8.61038406	     -0.03602829	      0.01282832	      0.02223543	    -23.01118431	    -18.53100532	    -21.56665710	    -15.00167995	     15.16708752	     21.75652910	    -20.08603987	     23.36944615	     29.23058152	     16.36452574	   -168.08620303
      3.14000000	      3.36505426	      3.92359814	     -8.56210674	     -0.03651395	      0.01289009	      0.02209028	    -22.97639616	    -18.64658309	    -21.52410085	    -15.06849244	     15.09026670	     21.84050946	    -20.20887330	     23.43868460	     29.59324141	     16.49081119	   -168.01068097
      3.16000000	      3.38788599	      3.92116748	     -8.55768583	     -0.03691990	      0.01285018	      0.02208588	    -22.99667331	    -18.65442290	    -21.56043050	    -15.07470041	     15.08676446	     21.84860565	    -20.18479942	     23.45368318	     29.49570687	     16.60374415	   -168.00540320
      3.18000000	      3.44126185	      3.88950096	     -8.54181500	     -0.03725160	      0.01284723	      0.02214075	    -22.99847119	    -18.64576284	    -21.58891851	    -15.06080567	     15.05461191	     21.84987875	    -20.17490801	     23.51191980	     29.29615638	     16.67358806	   -167.98826498
